<svg xmlns="http://www.w3.org/2000/svg" viewBox="0 0 706.28 170.59"><defs><style>.cls-1{fill:#69971f;}.cls-2{fill:#222;}.cls-3{fill:#80ba26;}.cls-4{fill:#626f04;}.cls-5{fill:#bebe00;}.cls-6{fill:#cad401;}.cls-7{fill:#00abc8;}.cls-8{fill:#0098d8;}.cls-9{fill:#009fe3;}.cls-10{fill:#0070ba;}.cls-11{fill:#0061a1;}</style></defs><g id="Layer_2" data-name="Layer 2"><g id="Layer_1-2" data-name="Layer 1"><path class="cls-1" d="M706.28,1.83,665,68.73v44.1H631.39V68.73l-9.73-15.65a41.28,41.28,0,0,0,2-13.14C623.7,20.88,612,4.76,590,2.19l-.22-.36h37.77L648.2,39.27,668.5,1.83Z"/><polygon class="cls-2" points="664.9 158.15 664.9 169.79 631.42 169.79 631.42 125.66 664.9 125.66 664.9 137.31 644.79 137.31 644.79 141.67 664.44 141.67 664.44 153.32 644.79 153.32 644.79 158.15 664.9 158.15"/><path class="cls-2" d="M624.47,143.59v18.07a26.23,26.23,0,0,1-20.18,8.93c-13.38,0-24.29-8.74-24.29-22.83s10.91-22.83,24.29-22.83c10.52,0,16.6,5.83,19.38,11.52l-11.25,5.75a9.21,9.21,0,0,0-8.13-5.49c-6.42,0-10.73,4.9-10.73,11s4.31,11.05,10.73,11.05a13.06,13.06,0,0,0,6.88-2v-1.59H603V143.59h21.51Z"/><path class="cls-3" d="M603.73,73.56l20.14,39.27H585.59L570.28,77.88H558.13v35H524.51V31.12h12.06V1.83h47.19a54.6,54.6,0,0,1,6.25.36l31.65,50.89A35.11,35.11,0,0,1,603.73,73.56ZM589.59,39.77c0-6-5.33-8.65-11-8.65H558.13V48.59H578.6C584.26,48.59,589.59,45.93,589.59,39.77Z"/><path class="cls-4" d="M623.7,39.94a41.28,41.28,0,0,1-2,13.14L590,2.19C612,4.76,623.7,20.88,623.7,39.94Z"/><polygon class="cls-2" points="574.43 158.15 574.43 169.79 540.94 169.79 540.94 125.66 574.43 125.66 574.43 137.31 554.31 137.31 554.31 141.67 573.96 141.67 573.96 153.32 554.31 153.32 554.31 158.15 574.43 158.15"/><rect class="cls-1" x="524.51" y="1.83" width="12.06" height="29.29"/><polygon class="cls-2" points="534.59 158.15 534.59 169.79 504.48 169.79 504.48 125.66 517.85 125.66 517.85 158.15 534.59 158.15"/><polygon class="cls-5" points="524.51 1.83 524.51 31.12 506.95 31.12 506.95 112.83 473.33 112.83 473.33 31.12 459.21 31.12 459.21 1.83 524.51 1.83"/><polygon class="cls-2" points="498.12 158.15 498.12 169.79 468.01 169.79 468.01 125.66 481.37 125.66 481.37 158.15 498.12 158.15"/><polygon class="cls-6" points="459.21 31.12 459.21 112.83 426.93 112.83 385.99 56.58 385.99 112.83 367.3 112.83 367.3 83.54 352.38 83.54 352.38 71.39 366.13 71.39 366.13 42.1 352.38 42.1 352.38 31.12 367.3 31.12 367.3 1.83 386.99 1.83 425.6 54.42 425.6 1.83 443.54 1.83 443.54 31.12 459.21 31.12"/><rect class="cls-3" x="443.54" y="1.83" width="15.67" height="29.29"/><path class="cls-2" d="M439.1,124.93c13.62,0,24.15,9.27,24.15,22.83s-10.53,22.83-24.15,22.83S415,161.33,415,147.76,425.46,124.93,439.1,124.93Zm10.58,22.83c0-6.15-4.17-11-10.58-11s-10.6,4.9-10.6,11,4.18,11.05,10.6,11.05S449.68,153.92,449.68,147.76Z"/><path class="cls-2" d="M412.16,137.77l-11.52,5.36a9.35,9.35,0,0,0-8.53-6.42c-6.42,0-10.72,4.9-10.72,11s4.3,11.05,10.72,11.05a9.35,9.35,0,0,0,8.53-6.42l11.52,5.3c-2.58,5.89-8.47,12.9-20.05,12.9-13.83,0-24.29-9.26-24.29-22.83s10.46-22.83,24.29-22.83C403.69,124.93,409.51,131.68,412.16,137.77Z"/><rect class="cls-5" x="352.38" y="83.54" width="14.92" height="29.29"/><rect class="cls-5" x="352.38" y="1.83" width="14.92" height="29.29"/><rect class="cls-5" x="352.38" y="42.1" width="13.75" height="29.29"/><polygon class="cls-7" points="352.38 83.54 352.38 112.83 283.09 112.83 283.09 51.31 301.34 1.83 352.38 1.83 352.38 31.12 316.7 31.12 316.7 42.1 352.38 42.1 352.38 71.39 316.7 71.39 316.7 83.54 352.38 83.54"/><polygon class="cls-8" points="301.34 1.83 283.09 51.31 283.09 1.83 301.34 1.83"/><path class="cls-9" d="M283.09,1.83V51.31L260.4,112.83H218.13L205.86,79.55A58.9,58.9,0,0,0,210,57.41C210,34.12,197.7,15.88,179,6.64l-1.78-4.81H215.3l24,74.72,24-74.72Z"/><path class="cls-10" d="M210,57.41a58.9,58.9,0,0,1-4.18,22.14L179,6.64C197.7,15.88,210,34.12,210,57.41Z"/><path class="cls-8" d="M179,6.64l26.89,72.91c-8.74,21.65-30.36,35.28-56.56,35.28-15.29,0-29-4.64-39.52-12.8a54.31,54.31,0,0,1-6.62-6,58.41,58.41,0,0,0,8.34-13.61l-21-9.66a61.65,61.65,0,0,1,0-30.65l21-9.78a58,58,0,0,0-8.22-13.56,54.49,54.49,0,0,1,6.64-6C120.42,4.59,134.09,0,149.3,0A67,67,0,0,1,179,6.64Zm-3.05,50.77c0-15.47-10.48-27.79-26.62-27.79s-26.63,12.32-26.63,27.79S133.15,85.2,149.3,85.2,175.92,72.89,175.92,57.41Z"/><path class="cls-11" d="M111.5,32.28l-21,9.78c.27-1,.56-2.06.89-3.07a53.59,53.59,0,0,1,11.9-20.27A58,58,0,0,1,111.5,32.28Z"/><path class="cls-11" d="M90.48,72.71l21,9.66A58.41,58.41,0,0,1,103.16,96,53.74,53.74,0,0,1,91.38,75.83C91.05,74.81,90.75,73.76,90.48,72.71Z"/><path class="cls-10" d="M97.49,12.67a52.18,52.18,0,0,1,5.79,6A53.59,53.59,0,0,0,91.38,39c-.33,1-.62,2-.89,3.07l-7.95,3.7A23.16,23.16,0,0,0,78.94,39c-4.13-5.44-10.64-9.37-17.87-9.37-16.14,0-26.95,12.32-26.95,27.79s10.81,27.79,27,27.79c7.23,0,13.74-3.92,17.87-9.37a23.16,23.16,0,0,0,3.6-6.77l7.94,3.65c.27,1.05.57,2.1.9,3.12A53.74,53.74,0,0,0,103.16,96a51.62,51.62,0,0,1-5.82,6c-8.37,7.36-20.11,12.8-36.27,12.8C26.29,114.83,0,91.53,0,57.41,0,23.13,26.29,0,61.07,0,77.37,0,89.12,5.31,97.49,12.67Z"/></g></g></svg>