<?xml version="1.0" encoding="UTF-8"?>
<svg id="Layer_1" data-name="Layer 1" xmlns="http://www.w3.org/2000/svg" viewBox="0 0 960 960">
  <defs>
    <style>
      .cls-1 {
        fill: #0074e7;
        stroke-width: 0px;
      }
    </style>
  </defs>
  <path class="cls-1" d="M171.67,383.77c-25.04,0-41.74,17.81-41.74,45.63s16.14,45.63,41.74,45.63,41.74-17.81,41.74-45.63-16.14-45.63-41.74-45.63M171.67,457.23c-15.03,0-19.48-13.91-19.48-27.27s4.45-27.83,19.48-27.83,19.48,13.91,19.48,27.83-4.45,27.27-19.48,27.27"/>
  <path class="cls-1" d="M241.23,472.81h25.6l27.83-86.26h-23.93l-16.7,62.89-17.25-62.89h-23.93l28.38,86.26Z"/>
  <path class="cls-1" d="M82.63,577.43c29.5,0,40.07-19.48,40.07-42.29v-62.33h-10.02v60.1c0,25.6-10.57,35.62-30.05,35.62s-30.05-10.02-30.05-35.62v-60.1h-10.02v62.89c0,22.26,10.57,41.74,40.07,41.74"/>
  <path class="cls-1" d="M220.09,495.07h10.02v80.14h-10.02v-80.14Z"/>
  <path class="cls-1" d="M271.84,575.21h11.13l31.16-80.14h-11.13l-25.6,70.12-25.6-70.12h-11.13l31.16,80.14Z"/>
  <path class="cls-1" d="M512.81,495.07h10.02v80.14h-10.02v-80.14Z"/>
  <path class="cls-1" d="M404.85,472.81v-46.19c0-17.25,5.01-24.49,17.25-24.49,10.57,0,14.47,7.23,14.47,21.15v49.53h22.26v-53.43c0-21.15-6.12-35.62-29.5-35.62-9.46,0-20.03,5.01-25.04,14.47v-12.24h-21.15v86.26h21.7"/>
  <path class="cls-1" d="M495,364.85l-22.26,7.79v13.91h-8.35v15.58h8.35v44.52c0,21.15,11.69,26.71,25.6,26.71,3.9,0,8.35,0,11.69-.56v-18.36c-2.23.56-3.9.56-5.57.56-7.23,0-9.46-2.23-9.46-18.36v-34.5h15.03v-16.14h-15.03v-21.15Z"/>
  <path class="cls-1" d="M147.74,575.21v-46.75c.56-15.58,9.46-27.27,25.04-27.27s20.59,10.57,20.59,23.93v50.09h10.02v-51.76c0-18.92-8.35-30.61-29.5-30.61-11.13,0-22.82,6.68-26.71,16.7v-13.91h-9.46v79.58h10.02Z"/>
  <path class="cls-1" d="M411.53,575.21v-42.85c0-16.7,11.13-30.05,30.05-30.05v-10.02c-15.58,0-25.6,8.35-30.61,21.15v-18.92h-9.46v80.69h10.02Z"/>
  <path class="cls-1" d="M456.05,513.99c0-10.57,8.9-13.36,20.03-13.36,6.12,0,13.91,1.67,19.48,5.01v-9.46c-7.23-2.23-16.14-3.34-20.59-3.34-15.03,0-28.94,5.57-28.94,21.15,0,25.6,43.96,21.15,43.96,40.63,0,10.57-11.13,15.03-21.15,15.03-8.35,0-16.7-2.23-22.82-5.01v10.02c7.23,2.78,15.58,3.34,23.37,3.34,13.36,0,30.61-6.12,30.61-22.82,0-28.38-43.96-25.6-43.96-41.18"/>
  <path class="cls-1" d="M614.1,575.21c-7.79,18.36-16.7,28.38-28.38,30.05l-3.34-7.79c12.24-1.67,17.81-12.8,21.7-22.26h-5.57l-28.38-72.35h-16.7v48.97c0,8.35.56,15.58,7.23,15.58h7.79v7.79h-7.79c-12.8,0-16.7-8.35-16.7-23.37v-48.97h-10.57v-7.79h10.57v-17.81h10.02v17.81h24.49l28.38,73.46,29.5-73.46h11.13l-33.39,80.14Z"/>
  <path class="cls-1" d="M623.56,386.55l-20.59,63.44-20.59-63.44h-18.36c-15.58,0-21.7,8.35-23.93,16.14v-16.14h-21.15v86.26h22.26v-38.96c0-18.92,7.79-27.83,23.37-28.38l22.82,66.78h8.9c-3.34,10.02-5.57,15.58-10.57,18.92l7.23,18.92c11.13-3.34,19.48-21.15,24.49-34.5l29.5-89.6h-23.37"/>
  <path class="cls-1" d="M106.56,437.19c-3.34,10.57-10.57,17.25-22.26,17.25-21.15,0-28.94-18.36-28.94-37.29s7.79-37.84,28.94-37.84c11.13,0,20.59,7.79,22.82,17.81l21.15-7.23c-6.12-20.03-23.37-31.16-43.96-31.16-32.83,0-52.31,25.6-52.31,58.43s19.48,57.32,52.31,57.32c21.15,0,37.29-11.69,43.41-30.61l-21.15-6.68Z"/>
  <path class="cls-1" d="M351.98,448.32c-2.78,4.45-8.9,8.9-16.7,8.9-12.24,0-18.92-6.68-20.03-21.7h58.43c1.67-26.71-11.69-51.2-38.96-51.2-24.49,0-41.18,19.48-41.18,45.63s15.58,45.63,41.18,45.63c15.58,0,27.27-6.12,34.5-20.59l-17.25-6.68ZM334.17,401.58c10.57,0,16.14,6.12,17.81,18.36h-36.17c0-6.68,4.45-18.36,18.36-18.36"/>
  <path class="cls-1" d="M375.35,554.06c-3.9,8.9-11.13,15.03-23.37,15.03-18.92,0-26.16-17.25-26.71-31.72h61.77c.56-22.26-9.46-45.08-35.62-45.08s-36.17,21.15-36.17,42.29c0,22.82,10.57,42.29,36.17,42.29,16.7,0,27.27-7.23,32.28-20.03l-8.35-2.78ZM351.98,501.19c16.14,0,25.04,13.91,25.6,28.38h-52.31c1.67-14.47,10.57-28.38,26.71-28.38"/>
  <path class="cls-1" d="M895.69,486.72c5.57-14.47,5.01-16.14,6.68-23.37,17.25-8.9,21.15-31.72,21.15-33.95-.56-6.68,0-2.78-.56-.56-1.67,6.68-8.35,13.91-13.91,18.36l-5.01,3.34c.56-6.12,7.23-45.08-8.35-75.13,5.01,15.03-1.67,31.72-10.57,42.85,0-2.23-3.9-41.18-21.15-60.66l-1.67-1.67c2.78,3.9,5.57,27.83-7.79,50.64-7.23,10.57-16.7,19.48-25.04,28.94-7.79,10.02-11.69,19.48-7.79,36.17,1.11,4.45,3.34,11.69,5.01,13.36,1.11.56,1.11-1.11.56-2.23-2.23-4.45-5.01-22.26,15.03-45.08,33.95-38.96,24.49-72.9,24.49-72.9,5.57,5.57,14.47,37.84,15.03,55.65-10.57,12.24-48.42,38.96-42.85,60.1.56,2.78,1.67,5.57,3.34,7.79-5.01,7.79-6.68,13.91-3.9,21.7-7.79,6.12-15.58,14.47-19.48,23.93-6.12,2.23-11.69,5.01-17.25,10.02-2.23-2.23-3.9-4.45-6.12-6.12,1.67-1.11,16.7-8.9,22.82-15.03,5.57-6.12,9.46-14.47,7.23-23.37-3.9-16.14-40.07-37.29-32.28-46.19,3.9-5.01,12.8-7.23,18.36-3.9.56,0,1.11.56,1.11,1.11,2.23-3.34,5.01-12.24-8.9-12.24-1.11-2.78-4.45-3.9-7.79-4.45-8.9-.56-17.81,3.34-21.15,11.13-4.45,10.02,8.35,31.16,7.23,45.08.56,11.69-23.37,19.48-22.82,1.11,0-8.35,19.48-30.61,1.67-56.76-6.68-8.9-14.47-17.25-21.15-25.6-24.49-31.16-10.02-53.98-10.02-53.98-23.93,30.61-18.36,55.65-18.92,54.54-1.67-2.78-15.03-18.92-8.35-39.51,0,0-14.47,18.36-12.24,71.23-2.78-1.67-17.81-15.58-17.25-25.6,0,0-3.34,22.82,17.81,38.96,1.67,8.35,2.23,15.58,5.01,23.93-8.35-2.78-21.15-12.8-25.6-21.7-.56-1.67,2.78,20.59,28.38,33.95,21.15,35.62,44.52,26.16,48.97,21.7,6.68,2.78,16.7,16.7,17.25,18.92-13.91-4.45-36.17-9.46-53.43-10.02-10.02-10.02-31.72-30.61-41.18-20.59-10.02,12.8,25.04,27.83,42.85,29.5,5.01,5.01,12.24,12.24,16.7,18.36-5.57,1.11-6.68,1.67-13.91,4.45-26.16-21.15-30.05-6.68-30.05-6.68-3.9,17.25,29.5,16.14,33.39,15.58,9.46,10.02,23.93,10.57,30.61,8.35,10.02,9.46,21.15,8.9,24.49,8.35,11.13,25.04,30.05,12.8,34.5,1.11,9.46,2.78,17.81-1.11,25.04-6.68,5.01,1.67,18.36,3.9,31.16-6.12,32.28,6.12,35.62-11.13,34.5-14.47-4.45-9.46-24.49,1.11-30.05,6.12-5.57-2.23-8.35-3.9-13.91-5.57,5.57-6.12,12.24-11.69,18.36-16.7,65.67-4.45,55.09-57.32,2.78-8.9-15.03,0-38.4,1.67-54.54,6.12,0-1.11,10.02-13.91,18.36-17.25,16.14,14.47,40.07,0,50.64-17.81,15.58-6.12,26.71-17.81,30.61-29.5l.56-2.23c-2.78,6.12-14.47,17.25-26.71,20.03M672.53,502.3c6.68-9.46,27.83,11.13,34.5,18.92-3.9-.56-40.07-8.9-34.5-18.92M688.11,547.38c1.67-10.57,21.7,2.23,26.16,6.68-6.68,2.78-26.16,2.78-26.16-6.68M898.47,554.06c1.11,3.9-11.13,12.8-26.71,5.57,15.58-11.13,26.16-10.57,26.71-5.57M916.84,510.1c6.68,8.9-22.82,16.7-35.06,17.25,0,0,26.16-25.6,35.06-17.25M818.34,539.59c-.56,3.34-.56,5.01-.56,10.57-3.34,1.11-6.68,1.67-9.46,3.9-1.11-2.78-2.78-5.01-4.45-7.23,0,0,7.23-5.01,14.47-7.23M712.04,428.84c5.01,8.35,43.41,37.29,35.06,53.98-9.46-12.8-32.28-25.6-33.39-26.71-1.11-8.35-1.67-17.81-1.67-27.27M744.32,486.72c-1.11,1.11-19.48,9.46-27.27-15.58,8.9,4.45,20.03,9.46,27.27,15.58M697.57,386.55c-.56,5.57,0,18.36,12.24,38.96-.56,9.46,0,19.48,1.67,28.94-6.68-3.34-12.24-7.23-18.36-10.57-.56-8.35.56-48.42,4.45-57.32M702.58,492.84c9.46,3.34,40.07,17.25,42.85,18.92-3.34,3.34-23.37,10.57-42.85-18.92M749.33,505.64c-11.69-8.9-31.16-17.81-50.09-25.04-1.67-4.45-5.01-20.59-5.01-23.37,5.57,4.45,13.36,9.46,20.59,12.8,8.9,28.38,27.83,20.59,31.72,18.36,3.9,4.45,5.01,10.57,2.78,17.25M751,507.31c3.34-8.35,1.67-13.91-2.23-21.7,12.24-15.58-3.34-37.29-13.91-48.42-5.57-6.12-19.48-20.59-20.03-22.26-2.78-25.6,10.02-47.86,10.57-49.53-6.12,13.36-9.46,31.72,25.6,74.57,6.12,7.79,14.47,16.14,14.47,27.27,0,10.02-8.35,18.36-7.23,27.27,1.11,6.12,4.45,11.13,10.57,12.24,6.68,1.11,12.8-.56,16.7-5.57,13.91-18.36-7.79-31.72-7.79-49.53,0-6.68,3.9-11.13,10.02-13.36,4.45-1.11,10.02-2.23,13.36,1.11-1.11,0-3.9.56-6.68,2.23-.56-.56-1.11-1.11-1.67-1.11-1.11,0-2.23,1.11-2.23,2.23v1.11c.56.56,1.11,1.67,2.23,1.11.56,0,1.11-.56,1.11-.56,2.78-1.67,6.12-2.23,7.79-2.23,13.36-1.11,9.46,6.12,9.46,6.12,0,0-10.02-5.57-20.03,3.9-15.03,16.14,52.87,48.97,2.23,85.7-2.23-1.67-8.9-6.12-12.8-7.79-.56.56-.56,1.11-1.11,1.11,4.45,2.23,8.9,5.01,12.24,7.79-3.34,2.23-4.45,3.9-7.23,6.12-4.45-4.45-10.02-8.35-16.14-11.13-2.78-11.13-9.46-20.03-17.25-26.71M768.81,537.92c5.01,1.11,10.02,5.01,13.91,7.79-2.23,2.78-3.34,4.45-5.01,7.23-2.78-1.67-4.45-2.78-9.46-4.45,1.11-3.34,1.11-7.23.56-10.57M718.16,531.24c10.57,1.11,41.18,3.34,47.86,6.12,1.11,3.34,1.11,7.23.56,10.57-10.57-2.78-23.37-2.78-33.39,0,.56,0-10.02-11.69-15.03-16.7M723.17,561.29c1.11,0,10.57-2.23,15.03-3.34,3.34,3.34,7.79,7.23,11.13,10.57,0,0-16.14,2.78-26.16-7.23M740.42,557.4c7.79-2.23,16.7-5.57,25.6-5.57,0,1.11-7.23,12.24-15.03,16.14l-10.57-10.57ZM774.93,576.32c-7.79,1.11-16.7-2.78-22.26-7.23,11.69-6.68,15.03-16.14,15.58-17.25,3.34.56,6.12,1.67,8.35,2.78-2.23,5.57-3.9,14.47-1.67,21.7M778.82,556.29c10.02,9.46,1.67,16.7-1.11,18.92,0,0-2.78-8.9,1.11-18.92M778.82,577.43c13.36-9.46,6.12-18.92,1.11-23.37,1.11-2.23,2.23-4.45,5.01-6.68,2.78,2.78,3.9,6.12,4.45,10.57h1.67c0-4.45-1.67-8.9-4.45-12.24,1.67-1.67,6.12-5.57,7.79-6.12,2.23,2.23,4.45,3.9,6.68,6.68,0,0-5.57,5.57-5.57,12.24h1.67c.56-3.34.56-5.57,5.01-10.02,1.67,2.23,3.34,4.45,3.9,7.23-2.78,2.23-13.91,12.24,0,23.37-14.47,21.7-27.27-.56-27.27-1.67M807.21,576.88c-11.13-10.02-1.11-18.36,0-18.92,1.67,5.01,1.67,13.36,0,18.92M809.99,577.99c2.23-6.68,2.23-14.47-.56-21.15.56,0,6.12-2.23,8.9-2.23,5.01,13.36,13.91,17.25,14.47,18.36-6.12,4.45-15.03,6.68-22.82,5.01M833.92,571.31s-9.46-5.01-13.91-17.25c8.35.56,17.81,5.01,25.6,7.23l-11.69,10.02ZM862.86,566.3c-5.57,5.01-16.14,8.35-26.71,5.57l11.69-9.46c5.01,1.67,10.02,2.78,15.03,3.9M869.53,536.81c-5.01,5.01-11.13,10.57-16.7,15.58-10.57-3.34-22.26-4.45-33.39-2.23,0-3.9,0-6.68,1.11-10.57,15.58-3.34,33.39-2.23,48.97-2.78M885.67,432.18c2.78-3.34,8.35-13.36,9.46-15.58,4.45-10.02,4.45-21.7,4.45-26.16,1.67,4.45,2.23,9.46,2.78,14.47,2.23,15.03,1.11,31.72-1.11,46.75-6.12,3.9-12.8,6.68-18.92,9.46,1.67-9.46,3.34-18.36,3.34-28.94M883.45,434.97c-.56,10.02-1.67,18.36-4.45,27.27-3.34,2.23-28.94,14.47-35.06,24.49-6.12-18.36,29.5-38.96,39.51-51.76M875.66,477.26c-2.23,5.01-6.12,11.69-11.13,14.47-5.01,3.34-13.36,2.78-17.81-.56,7.79-6.12,19.48-10.57,28.94-13.91M843.94,515.66c13.36-5.57,30.61-11.69,43.96-15.58-5.57,8.9-28.38,27.83-43.96,15.58M891.8,488.39c-12.24,3.9-25.04,7.79-37.29,13.36-4.45,2.23-9.46,5.01-13.91,7.79-1.67-6.68,0-13.36,5.01-17.25,3.9,2.78,8.35,3.9,13.36,3.34,10.02-1.11,15.58-10.02,19.48-19.48,7.23-3.34,14.47-6.68,21.15-11.13-1.11,7.23-3.9,15.03-6.68,22.26-.56.56,0,.56-1.11,1.11"/>
</svg>